<svg width="800" height="560" viewBox="0 0 800 560" fill="none" xmlns="http://www.w3.org/2000/svg">
<rect width="800" height="560" fill="#E5E5E5"/>
<rect width="800" height="560" fill="#0039B7"/>
<path d="M93.1136 122C109.068 122 118.733 112.131 118.733 95.767C118.733 79.4545 109.068 69.6364 93.267 69.6364H74.5511V122H93.1136ZM85.6222 112.514V79.1222H92.679C102.497 79.1222 107.688 84.1335 107.688 95.767C107.688 107.452 102.497 112.514 92.6534 112.514H85.6222ZM140.627 122.767C150.343 122.767 156.888 118.037 158.423 110.75L148.349 110.085C147.249 113.077 144.437 114.636 140.806 114.636C135.36 114.636 131.908 111.031 131.908 105.176V105.151H158.653V102.159C158.653 88.8125 150.573 82.2159 140.192 82.2159C128.636 82.2159 121.144 90.4233 121.144 102.543C121.144 114.994 128.533 122.767 140.627 122.767ZM131.908 98.4006C132.138 93.9261 135.539 90.3466 140.371 90.3466C145.102 90.3466 148.374 93.7216 148.4 98.4006H131.908ZM194.437 93.9261C193.465 86.6903 187.636 82.2159 177.715 82.2159C167.667 82.2159 161.045 86.8693 161.07 94.4375C161.045 100.318 164.752 104.128 172.423 105.662L179.224 107.017C182.65 107.707 184.21 108.96 184.261 110.929C184.21 113.256 181.678 114.918 177.869 114.918C173.982 114.918 171.4 113.256 170.735 110.06L160.022 110.622C161.045 118.139 167.437 122.767 177.843 122.767C188.019 122.767 195.306 117.577 195.332 109.83C195.306 104.153 191.599 100.753 183.979 99.1932L176.871 97.7614C173.215 96.9688 171.86 95.7159 171.886 93.8239C171.86 91.4716 174.519 89.9375 177.894 89.9375C181.678 89.9375 183.928 92.0085 184.465 94.5398L194.437 93.9261ZM209.389 122.741C215.193 122.741 218.952 120.21 220.869 116.554H221.176V122H231.506V95.5114C231.506 86.1534 223.58 82.2159 214.835 82.2159C205.426 82.2159 199.239 86.7159 197.73 93.875L207.804 94.6932C208.545 92.0852 210.872 90.1676 214.784 90.1676C218.491 90.1676 220.614 92.0341 220.614 95.2557V95.4091C220.614 97.9403 217.929 98.2727 211.102 98.9375C203.33 99.6534 196.349 102.261 196.349 111.031C196.349 118.804 201.898 122.741 209.389 122.741ZM212.509 115.224C209.159 115.224 206.756 113.665 206.756 110.673C206.756 107.605 209.287 106.097 213.122 105.56C215.5 105.227 219.386 104.665 220.69 103.795V107.963C220.69 112.08 217.29 115.224 212.509 115.224ZM257.075 82.7273H249.277V80.0938C249.277 77.4347 250.351 75.875 253.547 75.875C254.851 75.875 256.18 76.1562 257.05 76.4375L258.967 68.2557C257.612 67.8466 254.621 67.1818 251.271 67.1818C243.882 67.1818 238.385 71.3494 238.385 79.8892V82.7273H232.837V90.9091H238.385V122H249.277V90.9091H257.075V82.7273ZM259.729 122H270.621V82.7273H259.729V122ZM265.201 77.6648C268.448 77.6648 271.107 75.1847 271.107 72.142C271.107 69.125 268.448 66.6449 265.201 66.6449C261.979 66.6449 259.32 69.125 259.32 72.142C259.32 75.1847 261.979 77.6648 265.201 77.6648ZM293.091 122.767C305.006 122.767 312.42 114.611 312.42 102.517C312.42 90.3466 305.006 82.2159 293.091 82.2159C281.176 82.2159 273.761 90.3466 273.761 102.517C273.761 114.611 281.176 122.767 293.091 122.767ZM293.142 114.33C287.645 114.33 284.832 109.293 284.832 102.44C284.832 95.5881 287.645 90.5256 293.142 90.5256C298.537 90.5256 301.349 95.5881 301.349 102.44C301.349 109.293 298.537 114.33 293.142 114.33ZM76.3409 194H82.6818V170.58H105.386V164.955H82.6818V147.261H107.739V141.636H76.3409V194ZM113.359 194H119.393V169.148C119.393 163.83 123.586 159.943 129.313 159.943C130.924 159.943 132.586 160.25 132.995 160.352V154.216C132.305 154.165 130.719 154.114 129.825 154.114C125.12 154.114 121.029 156.773 119.597 160.659H119.188V154.727H113.359V194ZM150.907 194.818C161.543 194.818 168.702 186.739 168.702 174.568C168.702 162.295 161.543 154.216 150.907 154.216C140.271 154.216 133.112 162.295 133.112 174.568C133.112 186.739 140.271 194.818 150.907 194.818ZM150.907 189.398C142.827 189.398 139.146 182.443 139.146 174.568C139.146 166.693 142.827 159.636 150.907 159.636C158.987 159.636 162.668 166.693 162.668 174.568C162.668 182.443 158.987 189.398 150.907 189.398ZM179.947 170.375C179.947 163.523 184.192 159.636 189.97 159.636C195.57 159.636 198.97 163.293 198.97 169.455V194H205.004V169.045C205.004 159.023 199.661 154.216 191.709 154.216C185.777 154.216 182.095 156.875 180.254 160.864H179.743V154.727H173.913V194H179.947V170.375ZM229.11 154.727H220.724V145.318H214.69V154.727H208.758V159.841H214.69V184.386C214.69 191.239 220.212 194.511 225.326 194.511C227.576 194.511 229.008 194.102 229.826 193.795L228.599 188.375C228.087 188.477 227.269 188.682 225.94 188.682C223.281 188.682 220.724 187.864 220.724 182.75V159.841H229.11V154.727ZM255.281 168.739H232.371V174.364H255.281V168.739ZM278.364 194.818C286.341 194.818 292.17 190.83 294.011 184.898L288.182 183.261C286.648 187.352 283.094 189.398 278.364 189.398C271.281 189.398 266.398 184.821 266.116 176.409H294.625V173.852C294.625 159.227 285.932 154.216 277.75 154.216C267.114 154.216 260.057 162.602 260.057 174.67C260.057 186.739 267.011 194.818 278.364 194.818ZM266.116 171.193C266.526 165.082 270.847 159.636 277.75 159.636C284.295 159.636 288.489 164.545 288.489 171.193H266.116ZM305.838 170.375C305.838 163.523 310.082 159.636 315.861 159.636C321.46 159.636 324.861 163.293 324.861 169.455V194H330.895V169.045C330.895 159.023 325.551 154.216 317.599 154.216C311.668 154.216 307.986 156.875 306.145 160.864H305.634V154.727H299.804V194H305.838V170.375ZM352.751 194.818C360.319 194.818 362.876 190.114 364.205 187.966H364.921V194H370.751V141.636H364.717V160.966H364.205C362.876 158.92 360.523 154.216 352.853 154.216C342.933 154.216 336.08 162.091 336.08 174.466C336.08 186.943 342.933 194.818 352.751 194.818ZM353.569 189.398C346.001 189.398 342.114 182.75 342.114 174.364C342.114 166.08 345.898 159.636 353.569 159.636C360.933 159.636 364.819 165.568 364.819 174.364C364.819 183.261 360.83 189.398 353.569 189.398Z" fill="white"/>
<circle cx="148" cy="326" r="68.3846" stroke="white" stroke-opacity="0.4" stroke-width="3.23077"/>
<path d="M161 296.75V321.905" stroke="white" stroke-width="4.875" stroke-linecap="round" stroke-linejoin="round"/>
<path d="M135 321.905V296.75" stroke="white" stroke-width="4.875" stroke-linecap="round" stroke-linejoin="round"/>
<path d="M147.997 349.81L157.773 354.948C159.677 355.949 161.9 354.33 161.536 352.211L159.667 341.327L167.578 333.621C169.118 332.12 168.27 329.504 166.141 329.195L155.212 327.606L150.324 317.696C149.371 315.766 146.622 315.766 145.67 317.696L140.785 327.606L129.855 329.195C127.726 329.504 126.878 332.12 128.419 333.621L136.329 341.327L134.46 352.211C134.096 354.33 136.319 355.946 138.224 354.948L148 349.81" stroke="white" stroke-width="4.875" stroke-linecap="round" stroke-linejoin="round"/>
<path d="M141.701 325.746L128.516 318.187C126.498 317.03 125.25 314.879 125.25 312.548V303.25C125.25 299.659 128.159 296.75 131.75 296.75H164.25C167.841 296.75 170.75 299.659 170.75 303.25V312.548C170.75 314.879 169.505 317.03 167.484 318.187L154.298 325.746" stroke="white" stroke-width="4.875" stroke-linecap="round" stroke-linejoin="round"/>
</svg>
